<svg xmlns="http://www.w3.org/2000/svg" viewBox="0 0 50 50"><path d="M8.72.533a248.956 248.956 0 0 1 32.56 0 8.779 8.779 0 0 1 8.187 8.186 248.956 248.956 0 0 1 0 32.562 8.779 8.779 0 0 1-8.186 8.186 248.956 248.956 0 0 1-32.562 0A8.779 8.779 0 0 1 .533 41.28a248.956 248.956 0 0 1 0-32.562A8.779 8.779 0 0 1 8.72.533Zm22.156 19.701.293.65c.07.158.227.258.4.258l7.58-.027a.436.436 0 0 0 .422-.538c-.174-.72-.352-1.341-.533-1.865-2.008-6.149-6.955-9.861-13.895-9.861-9.3 0-14.895 6.688-14.895 16.227 0 9.538 5.595 16.226 14.895 16.226 6.963 0 11.92-3.737 13.914-9.92.23-.683.413-1.336.553-1.957a.437.437 0 0 0-.425-.532l-7.578.004a.436.436 0 0 0-.4.262l-.287.66c-.06.139-.123.274-.189.405-1.1 2.196-2.936 3.38-5.485 3.38-2.113 0-3.728-.81-4.855-2.325-1.117-1.502-1.728-3.678-1.728-6.203 0-2.526.611-4.702 1.728-6.204 1.127-1.515 2.742-2.324 4.855-2.324 2.53 0 4.358 1.166 5.461 3.331.059.115.115.233.17.353Z" fill="#FF7A34" fill-rule="evenodd"/></svg>
